# xmcd
#
# Track frame offsets:
#	150
#	18450
#	35350
#	54850
#	70300
#	86100
#	107100
#	119550
#	136300
#	159150
#	176300
#	194950
#	212600
#	225000
#
# Disc length: 3213 seconds
#
# Revision: 1
# Processed by: cddbd v1.5.1PL2 Copyright (c) Steve Scherf et al.
# Submitted via: audiograbber 1.82.02
#
DISCID=b70c8b0e
DTITLE=Pedro Arevalo - Pedro Arevalo and Friends
DYEAR=2005
DGENRE=Acoustic
TTITLE0=Wine and Women
TTITLE1=Ain't Too Bad At All (Kellie's Song)
TTITLE2=Wherever I Go
TTITLE3=Trouble
TTITLE4=Waste My Time
TTITLE5=C. C. Rider
TTITLE6=Singin' The Lonesome Blues
TTITLE7=Driftin' Song
TTITLE8=Reason
TTITLE9=Blues For Luci
TTITLE10=Blues Stay Away
TTITLE11=I Don't Know
TTITLE12=Solid Gone
TTITLE13=Just Waiting For You To Come Home
EXTD=
EXTT0=
EXTT1=
EXTT2=
EXTT3=
EXTT4=
EXTT5=
EXTT6=
EXTT7=
EXTT8=
EXTT9=
EXTT10=
EXTT11=
EXTT12=
EXTT13=
PLAYORDER=
